<?xml version="1.0" encoding="UTF-8" standalone="no"?>
<!DOCTYPE svg PUBLIC "-//W3C//DTD SVG 1.1//EN"
 "http://www.w3.org/Graphics/SVG/1.1/DTD/svg11.dtd">
<!-- Generated by graphviz version 2.44.0 ()
 -->
<!-- Title: Graphical Class Hierarchy Pages: 1 -->
<svg width="227pt" height="180pt"
 viewBox="0.00 0.00 227.00 180.00" xmlns="http://www.w3.org/2000/svg" xmlns:xlink="http://www.w3.org/1999/xlink">
<g id="graph0" class="graph" transform="scale(1 1) rotate(0) translate(4 176)">
<title>Graphical Class Hierarchy</title>
<polygon fill="white" stroke="transparent" points="-4,4 -4,-176 223,-176 223,4 -4,4"/>
<!-- Node0 -->
<g id="node1" class="node">
<title>Node0</title>
<g id="a_node1"><a xlink:title="STL class.">
<polygon fill="white" stroke="#bfbfbf" points="0,-71 0,-101 101,-101 101,-71 0,-71"/>
<text text-anchor="start" x="8" y="-89" font-family="Helvetica,sans-Serif" font-size="10.00">basic_string_view&lt;</text>
<text text-anchor="middle" x="50.5" y="-78" font-family="Helvetica,sans-Serif" font-size="10.00"> Char &gt;</text>
</a>
</g>
</g>
<!-- Node1 -->
<g id="node2" class="node">
<title>Node1</title>
<g id="a_node2"><a xlink:title="STL class.">
<polygon fill="white" stroke="#bfbfbf" points="145,-152.5 145,-171.5 211,-171.5 211,-152.5 145,-152.5"/>
<text text-anchor="middle" x="178" y="-159.5" font-family="Helvetica,sans-Serif" font-size="10.00">string_view</text>
</a>
</g>
</g>
<!-- Node0&#45;&gt;Node1 -->
<g id="edge1" class="edge">
<title>Node0&#45;&gt;Node1</title>
<path fill="none" stroke="midnightblue" d="M80.89,-107.13C97.08,-118.37 117.75,-132.09 137,-143 142.75,-146.26 149.15,-149.47 155.12,-152.31"/>
<polygon fill="midnightblue" stroke="midnightblue" points="82.59,-104.04 72.39,-101.17 78.57,-109.77 82.59,-104.04"/>
</g>
<!-- Node2 -->
<g id="node3" class="node">
<title>Node2</title>
<g id="a_node3"><a xlink:title="STL class.">
<polygon fill="white" stroke="#bfbfbf" points="137,-114.5 137,-133.5 219,-133.5 219,-114.5 137,-114.5"/>
<text text-anchor="middle" x="178" y="-121.5" font-family="Helvetica,sans-Serif" font-size="10.00">u16string_view</text>
</a>
</g>
</g>
<!-- Node0&#45;&gt;Node2 -->
<g id="edge2" class="edge">
<title>Node0&#45;&gt;Node2</title>
<path fill="none" stroke="midnightblue" d="M111.01,-104.02C122.9,-107.62 134.95,-111.27 145.44,-114.44"/>
<polygon fill="midnightblue" stroke="midnightblue" points="111.69,-100.57 101.1,-101.02 109.66,-107.27 111.69,-100.57"/>
</g>
<!-- Node3 -->
<g id="node4" class="node">
<title>Node3</title>
<g id="a_node4"><a xlink:title="STL class.">
<polygon fill="white" stroke="#bfbfbf" points="137,-76.5 137,-95.5 219,-95.5 219,-76.5 137,-76.5"/>
<text text-anchor="middle" x="178" y="-83.5" font-family="Helvetica,sans-Serif" font-size="10.00">u32string_view</text>
</a>
</g>
</g>
<!-- Node0&#45;&gt;Node3 -->
<g id="edge3" class="edge">
<title>Node0&#45;&gt;Node3</title>
<path fill="none" stroke="midnightblue" d="M111.16,-86C119.79,-86 128.5,-86 136.63,-86"/>
<polygon fill="midnightblue" stroke="midnightblue" points="111.1,-82.5 101.1,-86 111.1,-89.5 111.1,-82.5"/>
</g>
<!-- Node4 -->
<g id="node5" class="node">
<title>Node4</title>
<g id="a_node5"><a xlink:title="STL class.">
<polygon fill="white" stroke="#bfbfbf" points="139.5,-38.5 139.5,-57.5 216.5,-57.5 216.5,-38.5 139.5,-38.5"/>
<text text-anchor="middle" x="178" y="-45.5" font-family="Helvetica,sans-Serif" font-size="10.00">u8string_view</text>
</a>
</g>
</g>
<!-- Node0&#45;&gt;Node4 -->
<g id="edge4" class="edge">
<title>Node0&#45;&gt;Node4</title>
<path fill="none" stroke="midnightblue" d="M111.01,-67.98C122.9,-64.38 134.95,-60.73 145.44,-57.56"/>
<polygon fill="midnightblue" stroke="midnightblue" points="109.66,-64.73 101.1,-70.98 111.69,-71.43 109.66,-64.73"/>
</g>
<!-- Node5 -->
<g id="node6" class="node">
<title>Node5</title>
<g id="a_node6"><a xlink:title="STL class.">
<polygon fill="white" stroke="#bfbfbf" points="141,-0.5 141,-19.5 215,-19.5 215,-0.5 141,-0.5"/>
<text text-anchor="middle" x="178" y="-7.5" font-family="Helvetica,sans-Serif" font-size="10.00">wstring_view</text>
</a>
</g>
</g>
<!-- Node0&#45;&gt;Node5 -->
<g id="edge5" class="edge">
<title>Node0&#45;&gt;Node5</title>
<path fill="none" stroke="midnightblue" d="M80.89,-64.87C97.08,-53.63 117.75,-39.91 137,-29 142.75,-25.74 149.15,-22.53 155.12,-19.69"/>
<polygon fill="midnightblue" stroke="midnightblue" points="78.57,-62.23 72.39,-70.83 82.59,-67.96 78.57,-62.23"/>
</g>
</g>
</svg>
