<?xml version="1.0" encoding="UTF-8" standalone="no"?>
<!DOCTYPE svg PUBLIC "-//W3C//DTD SVG 1.1//EN"
 "http://www.w3.org/Graphics/SVG/1.1/DTD/svg11.dtd">
<!-- Generated by graphviz version 2.44.0 ()
 -->
<!-- Title: Graphical Class Hierarchy Pages: 1 -->
<svg width="314pt" height="370pt"
 viewBox="0.00 0.00 314.00 370.00" xmlns="http://www.w3.org/2000/svg" xmlns:xlink="http://www.w3.org/1999/xlink">
<g id="graph0" class="graph" transform="scale(1 1) rotate(0) translate(4 366)">
<title>Graphical Class Hierarchy</title>
<polygon fill="white" stroke="transparent" points="-4,4 -4,-366 310,-366 310,4 -4,4"/>
<!-- Node0 -->
<g id="node1" class="node">
<title>Node0</title>
<g id="a_node1"><a xlink:title="STL class.">
<polygon fill="white" stroke="#bfbfbf" points="0,-228.5 0,-247.5 58,-247.5 58,-228.5 0,-228.5"/>
<text text-anchor="middle" x="29" y="-235.5" font-family="Helvetica,sans-Serif" font-size="10.00">exception</text>
</a>
</g>
</g>
<!-- Node1 -->
<g id="node2" class="node">
<title>Node1</title>
<g id="a_node2"><a xlink:title="STL class.">
<polygon fill="white" stroke="#bfbfbf" points="108,-342.5 108,-361.5 166,-361.5 166,-342.5 108,-342.5"/>
<text text-anchor="middle" x="137" y="-349.5" font-family="Helvetica,sans-Serif" font-size="10.00">bad_alloc</text>
</a>
</g>
</g>
<!-- Node0&#45;&gt;Node1 -->
<g id="edge1" class="edge">
<title>Node0&#45;&gt;Node1</title>
<path fill="none" stroke="midnightblue" d="M38.68,-256.8C49.19,-277.79 68.67,-311.61 94,-333 98.4,-336.72 103.65,-339.85 108.92,-342.43"/>
<polygon fill="midnightblue" stroke="midnightblue" points="41.76,-255.12 34.26,-247.64 35.45,-258.16 41.76,-255.12"/>
</g>
<!-- Node2 -->
<g id="node3" class="node">
<title>Node2</title>
<g id="a_node3"><a xlink:title="STL class.">
<polygon fill="white" stroke="#bfbfbf" points="109,-304.5 109,-323.5 165,-323.5 165,-304.5 109,-304.5"/>
<text text-anchor="middle" x="137" y="-311.5" font-family="Helvetica,sans-Serif" font-size="10.00">bad_cast</text>
</a>
</g>
</g>
<!-- Node0&#45;&gt;Node2 -->
<g id="edge2" class="edge">
<title>Node0&#45;&gt;Node2</title>
<path fill="none" stroke="midnightblue" d="M46.47,-255.23C58.76,-267.42 76.4,-283.56 94,-295 99.37,-298.49 105.48,-301.65 111.35,-304.35"/>
<polygon fill="midnightblue" stroke="midnightblue" points="48.73,-252.54 39.22,-247.88 43.75,-257.46 48.73,-252.54"/>
</g>
<!-- Node3 -->
<g id="node4" class="node">
<title>Node3</title>
<g id="a_node4"><a xlink:title="STL class.">
<polygon fill="white" stroke="#bfbfbf" points="97.5,-266.5 97.5,-285.5 176.5,-285.5 176.5,-266.5 97.5,-266.5"/>
<text text-anchor="middle" x="137" y="-273.5" font-family="Helvetica,sans-Serif" font-size="10.00">bad_exception</text>
</a>
</g>
</g>
<!-- Node0&#45;&gt;Node3 -->
<g id="edge3" class="edge">
<title>Node0&#45;&gt;Node3</title>
<path fill="none" stroke="midnightblue" d="M66.18,-250.97C80.31,-256.03 96.21,-261.73 109.26,-266.41"/>
<polygon fill="midnightblue" stroke="midnightblue" points="67.34,-247.67 56.75,-247.59 64.98,-254.26 67.34,-247.67"/>
</g>
<!-- Node4 -->
<g id="node5" class="node">
<title>Node4</title>
<g id="a_node5"><a xlink:title="STL class.">
<polygon fill="white" stroke="#bfbfbf" points="105.5,-228.5 105.5,-247.5 168.5,-247.5 168.5,-228.5 105.5,-228.5"/>
<text text-anchor="middle" x="137" y="-235.5" font-family="Helvetica,sans-Serif" font-size="10.00">bad_typeid</text>
</a>
</g>
</g>
<!-- Node0&#45;&gt;Node4 -->
<g id="edge4" class="edge">
<title>Node0&#45;&gt;Node4</title>
<path fill="none" stroke="midnightblue" d="M68.39,-238C80.47,-238 93.64,-238 105.13,-238"/>
<polygon fill="midnightblue" stroke="midnightblue" points="68.13,-234.5 58.13,-238 68.13,-241.5 68.13,-234.5"/>
</g>
<!-- Node5 -->
<g id="node6" class="node">
<title>Node5</title>
<g id="a_node6"><a xlink:title="STL class.">
<polygon fill="white" stroke="#bfbfbf" points="94,-190.5 94,-209.5 180,-209.5 180,-190.5 94,-190.5"/>
<text text-anchor="middle" x="137" y="-197.5" font-family="Helvetica,sans-Serif" font-size="10.00">ios_base::failure</text>
</a>
</g>
</g>
<!-- Node0&#45;&gt;Node5 -->
<g id="edge5" class="edge">
<title>Node0&#45;&gt;Node5</title>
<path fill="none" stroke="midnightblue" d="M66.18,-225.03C80.31,-219.97 96.21,-214.27 109.26,-209.59"/>
<polygon fill="midnightblue" stroke="midnightblue" points="64.98,-221.74 56.75,-228.41 67.34,-228.33 64.98,-221.74"/>
</g>
<!-- Node6 -->
<g id="node7" class="node">
<title>Node6</title>
<g id="a_node7"><a xlink:title="STL class.">
<polygon fill="white" stroke="#bfbfbf" points="106,-152.5 106,-171.5 168,-171.5 168,-152.5 106,-152.5"/>
<text text-anchor="middle" x="137" y="-159.5" font-family="Helvetica,sans-Serif" font-size="10.00">logic_error</text>
</a>
</g>
</g>
<!-- Node0&#45;&gt;Node6 -->
<g id="edge6" class="edge">
<title>Node0&#45;&gt;Node6</title>
<path fill="none" stroke="midnightblue" d="M46.47,-220.77C58.76,-208.58 76.4,-192.44 94,-181 99.37,-177.51 105.48,-174.35 111.35,-171.65"/>
<polygon fill="midnightblue" stroke="midnightblue" points="43.75,-218.54 39.22,-228.12 48.73,-223.46 43.75,-218.54"/>
</g>
<!-- Node11 -->
<g id="node12" class="node">
<title>Node11</title>
<g id="a_node12"><a xlink:title="STL class.">
<polygon fill="white" stroke="#bfbfbf" points="100,-57.5 100,-76.5 174,-76.5 174,-57.5 100,-57.5"/>
<text text-anchor="middle" x="137" y="-64.5" font-family="Helvetica,sans-Serif" font-size="10.00">runtime_error</text>
</a>
</g>
</g>
<!-- Node0&#45;&gt;Node11 -->
<g id="edge11" class="edge">
<title>Node0&#45;&gt;Node11</title>
<path fill="none" stroke="midnightblue" d="M41.32,-219.73C63.73,-183.59 113.02,-104.07 130.06,-76.58"/>
<polygon fill="midnightblue" stroke="midnightblue" points="38.3,-217.97 36,-228.32 44.25,-221.66 38.3,-217.97"/>
</g>
<!-- Node7 -->
<g id="node8" class="node">
<title>Node7</title>
<g id="a_node8"><a xlink:title="STL class.">
<polygon fill="white" stroke="#bfbfbf" points="224.5,-228.5 224.5,-247.5 297.5,-247.5 297.5,-228.5 224.5,-228.5"/>
<text text-anchor="middle" x="261" y="-235.5" font-family="Helvetica,sans-Serif" font-size="10.00">domain_error</text>
</a>
</g>
</g>
<!-- Node6&#45;&gt;Node7 -->
<g id="edge7" class="edge">
<title>Node6&#45;&gt;Node7</title>
<path fill="none" stroke="midnightblue" d="M172.42,-176.21C175.06,-177.7 177.62,-179.3 180,-181 198.95,-194.49 196.93,-205.67 216,-219 221.18,-222.62 227.17,-225.77 233.02,-228.4"/>
<polygon fill="midnightblue" stroke="midnightblue" points="173.8,-172.98 163.3,-171.53 170.6,-179.21 173.8,-172.98"/>
</g>
<!-- Node8 -->
<g id="node9" class="node">
<title>Node8</title>
<g id="a_node9"><a xlink:title="STL class.">
<polygon fill="white" stroke="#bfbfbf" points="216,-190.5 216,-209.5 306,-209.5 306,-190.5 216,-190.5"/>
<text text-anchor="middle" x="261" y="-197.5" font-family="Helvetica,sans-Serif" font-size="10.00">invalid_argument</text>
</a>
</g>
</g>
<!-- Node6&#45;&gt;Node8 -->
<g id="edge8" class="edge">
<title>Node6&#45;&gt;Node8</title>
<path fill="none" stroke="midnightblue" d="M178.17,-174.51C194.83,-179.7 213.84,-185.62 229.34,-190.45"/>
<polygon fill="midnightblue" stroke="midnightblue" points="178.75,-171.03 168.16,-171.39 176.66,-177.71 178.75,-171.03"/>
</g>
<!-- Node9 -->
<g id="node10" class="node">
<title>Node9</title>
<g id="a_node10"><a xlink:title="STL class.">
<polygon fill="white" stroke="#bfbfbf" points="227,-152.5 227,-171.5 295,-171.5 295,-152.5 227,-152.5"/>
<text text-anchor="middle" x="261" y="-159.5" font-family="Helvetica,sans-Serif" font-size="10.00">length_error</text>
</a>
</g>
</g>
<!-- Node6&#45;&gt;Node9 -->
<g id="edge9" class="edge">
<title>Node6&#45;&gt;Node9</title>
<path fill="none" stroke="midnightblue" d="M178.6,-162C194.24,-162 211.9,-162 226.76,-162"/>
<polygon fill="midnightblue" stroke="midnightblue" points="178.16,-158.5 168.16,-162 178.16,-165.5 178.16,-158.5"/>
</g>
<!-- Node10 -->
<g id="node11" class="node">
<title>Node10</title>
<g id="a_node11"><a xlink:title="STL class.">
<polygon fill="white" stroke="#bfbfbf" points="224.5,-114.5 224.5,-133.5 297.5,-133.5 297.5,-114.5 224.5,-114.5"/>
<text text-anchor="middle" x="261" y="-121.5" font-family="Helvetica,sans-Serif" font-size="10.00">out_of_range</text>
</a>
</g>
</g>
<!-- Node6&#45;&gt;Node10 -->
<g id="edge10" class="edge">
<title>Node6&#45;&gt;Node10</title>
<path fill="none" stroke="midnightblue" d="M178.17,-149.49C194.83,-144.3 213.84,-138.38 229.34,-133.55"/>
<polygon fill="midnightblue" stroke="midnightblue" points="176.66,-146.29 168.16,-152.61 178.75,-152.97 176.66,-146.29"/>
</g>
<!-- Node12 -->
<g id="node13" class="node">
<title>Node12</title>
<g id="a_node13"><a xlink:title="STL class.">
<polygon fill="white" stroke="#bfbfbf" points="222.5,-76.5 222.5,-95.5 299.5,-95.5 299.5,-76.5 222.5,-76.5"/>
<text text-anchor="middle" x="261" y="-83.5" font-family="Helvetica,sans-Serif" font-size="10.00">overflow_error</text>
</a>
</g>
</g>
<!-- Node11&#45;&gt;Node12 -->
<g id="edge12" class="edge">
<title>Node11&#45;&gt;Node12</title>
<path fill="none" stroke="midnightblue" d="M184.16,-74.19C196.78,-76.15 210.3,-78.26 222.38,-80.14"/>
<polygon fill="midnightblue" stroke="midnightblue" points="184.69,-70.73 174.27,-72.65 183.62,-77.65 184.69,-70.73"/>
</g>
<!-- Node13 -->
<g id="node14" class="node">
<title>Node13</title>
<g id="a_node14"><a xlink:title="STL class.">
<polygon fill="white" stroke="#bfbfbf" points="228.5,-38.5 228.5,-57.5 293.5,-57.5 293.5,-38.5 228.5,-38.5"/>
<text text-anchor="middle" x="261" y="-45.5" font-family="Helvetica,sans-Serif" font-size="10.00">range_error</text>
</a>
</g>
</g>
<!-- Node11&#45;&gt;Node13 -->
<g id="edge13" class="edge">
<title>Node11&#45;&gt;Node13</title>
<path fill="none" stroke="midnightblue" d="M184.2,-59.81C198.88,-57.52 214.78,-55.04 228.21,-52.95"/>
<polygon fill="midnightblue" stroke="midnightblue" points="183.62,-56.35 174.27,-61.35 184.69,-63.27 183.62,-56.35"/>
</g>
<!-- Node14 -->
<g id="node15" class="node">
<title>Node14</title>
<g id="a_node15"><a xlink:title="STL class.">
<polygon fill="white" stroke="#bfbfbf" points="219.5,-0.5 219.5,-19.5 302.5,-19.5 302.5,-0.5 219.5,-0.5"/>
<text text-anchor="middle" x="261" y="-7.5" font-family="Helvetica,sans-Serif" font-size="10.00">underflow_error</text>
</a>
</g>
</g>
<!-- Node11&#45;&gt;Node14 -->
<g id="edge14" class="edge">
<title>Node11&#45;&gt;Node14</title>
<path fill="none" stroke="midnightblue" d="M166.23,-52.86C180.98,-45.57 199.38,-36.63 216,-29 222.81,-25.87 230.26,-22.6 237.08,-19.66"/>
<polygon fill="midnightblue" stroke="midnightblue" points="164.52,-49.8 157.12,-57.38 167.63,-56.07 164.52,-49.8"/>
</g>
</g>
</svg>
