<?xml version="1.0" encoding="UTF-8" standalone="no"?>
<!DOCTYPE svg PUBLIC "-//W3C//DTD SVG 1.1//EN"
 "http://www.w3.org/Graphics/SVG/1.1/DTD/svg11.dtd">
<!-- Generated by graphviz version 2.44.0 ()
 -->
<!-- Title: Graphical Class Hierarchy Pages: 1 -->
<svg width="825pt" height="782pt"
 viewBox="0.00 0.00 825.00 782.00" xmlns="http://www.w3.org/2000/svg" xmlns:xlink="http://www.w3.org/1999/xlink">
<g id="graph0" class="graph" transform="scale(1 1) rotate(0) translate(4 778)">
<title>Graphical Class Hierarchy</title>
<polygon fill="white" stroke="transparent" points="-4,4 -4,-778 821,-778 821,4 -4,4"/>
<!-- Node0 -->
<g id="node1" class="node">
<title>Node0</title>
<g id="a_node1"><a xlink:title="STL class.">
<polygon fill="white" stroke="#bfbfbf" points="0,-532.5 0,-551.5 56,-551.5 56,-532.5 0,-532.5"/>
<text text-anchor="middle" x="28" y="-539.5" font-family="Helvetica,sans-Serif" font-size="10.00">ios_base</text>
</a>
</g>
</g>
<!-- Node1 -->
<g id="node2" class="node">
<title>Node1</title>
<g id="a_node2"><a xlink:title=" ">
<polygon fill="white" stroke="#bfbfbf" points="100,-570.5 100,-589.5 193,-589.5 193,-570.5 100,-570.5"/>
<text text-anchor="middle" x="146.5" y="-577.5" font-family="Helvetica,sans-Serif" font-size="10.00">basic_ios&lt; char &gt;</text>
</a>
</g>
</g>
<!-- Node0&#45;&gt;Node1 -->
<g id="edge1" class="edge">
<title>Node0&#45;&gt;Node1</title>
<path fill="none" stroke="midnightblue" d="M65.76,-553.99C82.02,-559.29 100.88,-565.45 116.18,-570.44"/>
<polygon fill="midnightblue" stroke="midnightblue" points="66.61,-550.59 56.02,-550.81 64.44,-557.24 66.61,-550.59"/>
</g>
<!-- Node2 -->
<g id="node3" class="node">
<title>Node2</title>
<g id="a_node3"><a xlink:title=" ">
<polygon fill="white" stroke="#bfbfbf" points="92,-532.5 92,-551.5 201,-551.5 201,-532.5 92,-532.5"/>
<text text-anchor="middle" x="146.5" y="-539.5" font-family="Helvetica,sans-Serif" font-size="10.00">basic_ios&lt; wchar_t &gt;</text>
</a>
</g>
</g>
<!-- Node0&#45;&gt;Node2 -->
<g id="edge2" class="edge">
<title>Node0&#45;&gt;Node2</title>
<path fill="none" stroke="midnightblue" d="M66.21,-542C74.29,-542 82.98,-542 91.56,-542"/>
<polygon fill="midnightblue" stroke="midnightblue" points="66.02,-538.5 56.02,-542 66.02,-545.5 66.02,-538.5"/>
</g>
<!-- Node3 -->
<g id="node4" class="node">
<title>Node3</title>
<g id="a_node4"><a xlink:title="STL class.">
<polygon fill="white" stroke="#bfbfbf" points="99,-494.5 99,-513.5 194,-513.5 194,-494.5 99,-494.5"/>
<text text-anchor="middle" x="146.5" y="-501.5" font-family="Helvetica,sans-Serif" font-size="10.00">basic_ios&lt; Char &gt;</text>
</a>
</g>
</g>
<!-- Node0&#45;&gt;Node3 -->
<g id="edge3" class="edge">
<title>Node0&#45;&gt;Node3</title>
<path fill="none" stroke="midnightblue" d="M65.76,-530.01C82.02,-524.71 100.88,-518.55 116.18,-513.56"/>
<polygon fill="midnightblue" stroke="midnightblue" points="64.44,-526.76 56.02,-533.19 66.61,-533.41 64.44,-526.76"/>
</g>
<!-- Node4 -->
<g id="node5" class="node">
<title>Node4</title>
<g id="a_node5"><a xlink:title=" ">
<polygon fill="white" stroke="#bfbfbf" points="246,-627.5 246,-646.5 359,-646.5 359,-627.5 246,-627.5"/>
<text text-anchor="middle" x="302.5" y="-634.5" font-family="Helvetica,sans-Serif" font-size="10.00">basic_istream&lt; char &gt;</text>
</a>
</g>
</g>
<!-- Node3&#45;&gt;Node4 -->
<g id="edge4" class="edge">
<title>Node3&#45;&gt;Node4</title>
<path fill="none" stroke="midnightblue" d="M196.24,-518.98C197.92,-520.21 199.52,-521.55 201,-523 233.26,-554.59 203.89,-587.3 237,-618 241.19,-621.89 246.15,-624.98 251.41,-627.45"/>
<polygon fill="midnightblue" stroke="midnightblue" points="197.6,-515.71 187.22,-513.6 194.02,-521.73 197.6,-515.71"/>
</g>
<!-- Node5 -->
<g id="node6" class="node">
<title>Node5</title>
<g id="a_node6"><a xlink:title=" ">
<polygon fill="white" stroke="#bfbfbf" points="238.5,-589.5 238.5,-608.5 366.5,-608.5 366.5,-589.5 238.5,-589.5"/>
<text text-anchor="middle" x="302.5" y="-596.5" font-family="Helvetica,sans-Serif" font-size="10.00">basic_istream&lt; wchar_t &gt;</text>
</a>
</g>
</g>
<!-- Node3&#45;&gt;Node5 -->
<g id="edge5" class="edge">
<title>Node3&#45;&gt;Node5</title>
<path fill="none" stroke="midnightblue" d="M193.69,-518.03C196.27,-519.53 198.73,-521.18 201,-523 224.4,-541.71 213.09,-561.94 237,-580 242.12,-583.87 248.02,-586.95 254.13,-589.41"/>
<polygon fill="midnightblue" stroke="midnightblue" points="195.12,-514.83 184.6,-513.5 191.99,-521.1 195.12,-514.83"/>
</g>
<!-- Node6 -->
<g id="node7" class="node">
<title>Node6</title>
<g id="a_node7"><a xlink:title=" ">
<polygon fill="white" stroke="#bfbfbf" points="244.5,-551.5 244.5,-570.5 360.5,-570.5 360.5,-551.5 244.5,-551.5"/>
<text text-anchor="middle" x="302.5" y="-558.5" font-family="Helvetica,sans-Serif" font-size="10.00">basic_ostream&lt; char &gt;</text>
</a>
</g>
</g>
<!-- Node3&#45;&gt;Node6 -->
<g id="edge6" class="edge">
<title>Node3&#45;&gt;Node6</title>
<path fill="none" stroke="midnightblue" d="M186.22,-517C191.23,-518.9 196.27,-520.92 201,-523 217.57,-530.27 220.24,-535.19 237,-542 245.76,-545.56 255.43,-548.77 264.57,-551.49"/>
<polygon fill="midnightblue" stroke="midnightblue" points="187.27,-513.66 176.67,-513.5 184.86,-520.23 187.27,-513.66"/>
</g>
<!-- Node7 -->
<g id="node8" class="node">
<title>Node7</title>
<g id="a_node8"><a xlink:title=" ">
<polygon fill="white" stroke="#bfbfbf" points="237,-513.5 237,-532.5 368,-532.5 368,-513.5 237,-513.5"/>
<text text-anchor="middle" x="302.5" y="-520.5" font-family="Helvetica,sans-Serif" font-size="10.00">basic_ostream&lt; wchar_t &gt;</text>
</a>
</g>
</g>
<!-- Node3&#45;&gt;Node7 -->
<g id="edge7" class="edge">
<title>Node3&#45;&gt;Node7</title>
<path fill="none" stroke="midnightblue" d="M204.13,-510.99C214.78,-512.3 225.98,-513.68 236.85,-515.02"/>
<polygon fill="midnightblue" stroke="midnightblue" points="204.48,-507.5 194.12,-509.75 203.62,-514.45 204.48,-507.5"/>
</g>
<!-- Node8 -->
<g id="node9" class="node">
<title>Node8</title>
<g id="a_node9"><a xlink:title="STL class.">
<polygon fill="white" stroke="#bfbfbf" points="245.5,-282.5 245.5,-301.5 359.5,-301.5 359.5,-282.5 245.5,-282.5"/>
<text text-anchor="middle" x="302.5" y="-289.5" font-family="Helvetica,sans-Serif" font-size="10.00">basic_istream&lt; Char &gt;</text>
</a>
</g>
</g>
<!-- Node3&#45;&gt;Node8 -->
<g id="edge8" class="edge">
<title>Node3&#45;&gt;Node8</title>
<path fill="none" stroke="midnightblue" d="M160.42,-486.21C191.66,-443.21 270.43,-334.78 294.44,-301.72"/>
<polygon fill="midnightblue" stroke="midnightblue" points="157.56,-484.19 154.52,-494.34 163.23,-488.31 157.56,-484.19"/>
</g>
<!-- Node34 -->
<g id="node35" class="node">
<title>Node34</title>
<g id="a_node35"><a xlink:title="STL class.">
<polygon fill="white" stroke="#bfbfbf" points="244,-475.5 244,-494.5 361,-494.5 361,-475.5 244,-475.5"/>
<text text-anchor="middle" x="302.5" y="-482.5" font-family="Helvetica,sans-Serif" font-size="10.00">basic_ostream&lt; Char &gt;</text>
</a>
</g>
</g>
<!-- Node3&#45;&gt;Node34 -->
<g id="edge34" class="edge">
<title>Node3&#45;&gt;Node34</title>
<path fill="none" stroke="midnightblue" d="M204.28,-497C217.19,-495.4 230.92,-493.71 243.87,-492.11"/>
<polygon fill="midnightblue" stroke="midnightblue" points="203.62,-493.55 194.12,-498.25 204.48,-500.5 203.62,-493.55"/>
</g>
<!-- Node47 -->
<g id="node48" class="node">
<title>Node47</title>
<g id="a_node48"><a xlink:title="STL class.">
<polygon fill="white" stroke="#bfbfbf" points="288,-244.5 288,-263.5 317,-263.5 317,-244.5 288,-244.5"/>
<text text-anchor="middle" x="302.5" y="-251.5" font-family="Helvetica,sans-Serif" font-size="10.00">ios</text>
</a>
</g>
</g>
<!-- Node3&#45;&gt;Node47 -->
<g id="edge50" class="edge">
<title>Node3&#45;&gt;Node47</title>
<path fill="none" stroke="midnightblue" d="M149.34,-484.4C154.58,-440.06 173.53,-331.4 237,-273 251.09,-260.04 273.6,-255.89 287.96,-254.58"/>
<polygon fill="midnightblue" stroke="midnightblue" points="145.85,-484.12 148.27,-494.44 152.81,-484.87 145.85,-484.12"/>
</g>
<!-- Node48 -->
<g id="node49" class="node">
<title>Node48</title>
<g id="a_node49"><a xlink:title="STL class.">
<polygon fill="white" stroke="#bfbfbf" points="284,-206.5 284,-225.5 321,-225.5 321,-206.5 284,-206.5"/>
<text text-anchor="middle" x="302.5" y="-213.5" font-family="Helvetica,sans-Serif" font-size="10.00">wios</text>
</a>
</g>
</g>
<!-- Node3&#45;&gt;Node48 -->
<g id="edge51" class="edge">
<title>Node3&#45;&gt;Node48</title>
<path fill="none" stroke="midnightblue" d="M148.12,-484.26C150.75,-434.87 164.58,-304.95 237,-235 249.59,-222.84 269.57,-218.4 283.96,-216.82"/>
<polygon fill="midnightblue" stroke="midnightblue" points="144.62,-484.12 147.68,-494.27 151.61,-484.43 144.62,-484.12"/>
</g>
<!-- Node9 -->
<g id="node10" class="node">
<title>Node9</title>
<g id="a_node10"><a xlink:title=" ">
<polygon fill="white" stroke="#bfbfbf" points="413,-263.5 413,-282.5 529,-282.5 529,-263.5 413,-263.5"/>
<text text-anchor="middle" x="471" y="-270.5" font-family="Helvetica,sans-Serif" font-size="10.00">basic_ifstream&lt; char &gt;</text>
</a>
</g>
</g>
<!-- Node8&#45;&gt;Node9 -->
<g id="edge9" class="edge">
<title>Node8&#45;&gt;Node9</title>
<path fill="none" stroke="midnightblue" d="M370.04,-284.41C384.21,-282.79 399.06,-281.1 412.84,-279.52"/>
<polygon fill="midnightblue" stroke="midnightblue" points="369.41,-280.96 359.87,-285.57 370.2,-287.91 369.41,-280.96"/>
</g>
<!-- Node10 -->
<g id="node11" class="node">
<title>Node10</title>
<g id="a_node11"><a xlink:title=" ">
<polygon fill="white" stroke="#bfbfbf" points="405.5,-225.5 405.5,-244.5 536.5,-244.5 536.5,-225.5 405.5,-225.5"/>
<text text-anchor="middle" x="471" y="-232.5" font-family="Helvetica,sans-Serif" font-size="10.00">basic_ifstream&lt; wchar_t &gt;</text>
</a>
</g>
</g>
<!-- Node8&#45;&gt;Node10 -->
<g id="edge10" class="edge">
<title>Node8&#45;&gt;Node10</title>
<path fill="none" stroke="midnightblue" d="M349.98,-279.52C356.11,-277.52 362.25,-275.34 368,-273 384.76,-266.19 387.22,-260.76 404,-254 412.85,-250.44 422.61,-247.24 431.85,-244.54"/>
<polygon fill="midnightblue" stroke="midnightblue" points="348.94,-276.18 340.43,-282.49 351.02,-282.86 348.94,-276.18"/>
</g>
<!-- Node11 -->
<g id="node12" class="node">
<title>Node11</title>
<g id="a_node12"><a xlink:title=" ">
<polygon fill="white" stroke="#bfbfbf" points="412,-339.5 412,-358.5 530,-358.5 530,-339.5 412,-339.5"/>
<text text-anchor="middle" x="471" y="-346.5" font-family="Helvetica,sans-Serif" font-size="10.00">basic_iostream&lt; char &gt;</text>
</a>
</g>
</g>
<!-- Node8&#45;&gt;Node11 -->
<g id="edge11" class="edge">
<title>Node8&#45;&gt;Node11</title>
<path fill="none" stroke="midnightblue" d="M336.61,-305.29C356.09,-312.92 381.29,-322.45 404,-330 413.96,-333.31 424.87,-336.59 434.9,-339.47"/>
<polygon fill="midnightblue" stroke="midnightblue" points="337.85,-302.02 327.27,-301.61 335.29,-308.53 337.85,-302.02"/>
</g>
<!-- Node12 -->
<g id="node13" class="node">
<title>Node12</title>
<g id="a_node13"><a xlink:title=" ">
<polygon fill="white" stroke="#bfbfbf" points="404,-415.5 404,-434.5 538,-434.5 538,-415.5 404,-415.5"/>
<text text-anchor="middle" x="471" y="-422.5" font-family="Helvetica,sans-Serif" font-size="10.00">basic_iostream&lt; wchar_t &gt;</text>
</a>
</g>
</g>
<!-- Node8&#45;&gt;Node12 -->
<g id="edge12" class="edge">
<title>Node8&#45;&gt;Node12</title>
<path fill="none" stroke="midnightblue" d="M314.69,-310.21C331.14,-335.46 364.26,-380.85 404,-406 410.15,-409.89 417.11,-413 424.15,-415.49"/>
<polygon fill="midnightblue" stroke="midnightblue" points="317.54,-308.16 309.22,-301.6 311.63,-311.92 317.54,-308.16"/>
</g>
<!-- Node13 -->
<g id="node14" class="node">
<title>Node13</title>
<g id="a_node14"><a xlink:title=" ">
<polygon fill="white" stroke="#bfbfbf" points="420.5,-176 420.5,-206 521.5,-206 521.5,-176 420.5,-176"/>
<text text-anchor="start" x="428.5" y="-194" font-family="Helvetica,sans-Serif" font-size="10.00">basic_istringstream</text>
<text text-anchor="middle" x="471" y="-183" font-family="Helvetica,sans-Serif" font-size="10.00">&lt; char &gt;</text>
</a>
</g>
</g>
<!-- Node8&#45;&gt;Node13 -->
<g id="edge13" class="edge">
<title>Node8&#45;&gt;Node13</title>
<path fill="none" stroke="midnightblue" d="M360.07,-278.09C362.86,-276.56 365.52,-274.87 368,-273 391.91,-254.94 380.79,-234.95 404,-216 408.94,-211.97 414.59,-208.55 420.46,-205.65"/>
<polygon fill="midnightblue" stroke="midnightblue" points="358.44,-274.99 350.87,-282.41 361.41,-281.33 358.44,-274.99"/>
</g>
<!-- Node14 -->
<g id="node15" class="node">
<title>Node14</title>
<g id="a_node15"><a xlink:title=" ">
<polygon fill="white" stroke="#bfbfbf" points="420.5,-127 420.5,-157 521.5,-157 521.5,-127 420.5,-127"/>
<text text-anchor="start" x="428.5" y="-145" font-family="Helvetica,sans-Serif" font-size="10.00">basic_istringstream</text>
<text text-anchor="middle" x="471" y="-134" font-family="Helvetica,sans-Serif" font-size="10.00">&lt; wchar_t &gt;</text>
</a>
</g>
</g>
<!-- Node8&#45;&gt;Node14 -->
<g id="edge14" class="edge">
<title>Node8&#45;&gt;Node14</title>
<path fill="none" stroke="midnightblue" d="M362.73,-277.35C364.59,-276.02 366.36,-274.58 368,-273 403.89,-238.55 369.43,-202.79 404,-167 408.68,-162.15 414.4,-158.23 420.49,-155.07"/>
<polygon fill="midnightblue" stroke="midnightblue" points="360.9,-274.36 354.04,-282.44 364.44,-280.4 360.9,-274.36"/>
</g>
<!-- Node15 -->
<g id="node16" class="node">
<title>Node15</title>
<g id="a_node16"><a xlink:title="STL class.">
<polygon fill="white" stroke="#bfbfbf" points="412.5,-88.5 412.5,-107.5 529.5,-107.5 529.5,-88.5 412.5,-88.5"/>
<text text-anchor="middle" x="471" y="-95.5" font-family="Helvetica,sans-Serif" font-size="10.00">basic_ifstream&lt; Char &gt;</text>
</a>
</g>
</g>
<!-- Node8&#45;&gt;Node15 -->
<g id="edge15" class="edge">
<title>Node8&#45;&gt;Node15</title>
<path fill="none" stroke="midnightblue" d="M364.04,-276.68C365.44,-275.54 366.76,-274.31 368,-273 416.53,-221.56 355.67,-169.63 404,-118 408.09,-113.63 413.1,-110.2 418.52,-107.52"/>
<polygon fill="midnightblue" stroke="midnightblue" points="361.83,-273.94 355.38,-282.34 365.66,-279.8 361.83,-273.94"/>
</g>
<!-- Node18 -->
<g id="node19" class="node">
<title>Node18</title>
<g id="a_node19"><a xlink:title="STL class.">
<polygon fill="white" stroke="#bfbfbf" points="411.5,-377.5 411.5,-396.5 530.5,-396.5 530.5,-377.5 411.5,-377.5"/>
<text text-anchor="middle" x="471" y="-384.5" font-family="Helvetica,sans-Serif" font-size="10.00">basic_iostream&lt; Char &gt;</text>
</a>
</g>
</g>
<!-- Node8&#45;&gt;Node18 -->
<g id="edge18" class="edge">
<title>Node8&#45;&gt;Node18</title>
<path fill="none" stroke="midnightblue" d="M321.07,-308.52C340.13,-325.63 372.13,-352.06 404,-368 411.46,-371.73 419.78,-374.85 427.93,-377.4"/>
<polygon fill="midnightblue" stroke="midnightblue" points="323.24,-305.76 313.49,-301.6 318.51,-310.93 323.24,-305.76"/>
</g>
<!-- Node29 -->
<g id="node30" class="node">
<title>Node29</title>
<g id="a_node30"><a xlink:title="STL class.">
<polygon fill="white" stroke="#bfbfbf" points="420.5,-39 420.5,-69 521.5,-69 521.5,-39 420.5,-39"/>
<text text-anchor="start" x="428.5" y="-57" font-family="Helvetica,sans-Serif" font-size="10.00">basic_istringstream</text>
<text text-anchor="middle" x="471" y="-46" font-family="Helvetica,sans-Serif" font-size="10.00">&lt; Char &gt;</text>
</a>
</g>
</g>
<!-- Node8&#45;&gt;Node29 -->
<g id="edge29" class="edge">
<title>Node8&#45;&gt;Node29</title>
<path fill="none" stroke="midnightblue" d="M364.21,-276.67C365.55,-275.53 366.82,-274.31 368,-273 426.74,-207.88 347.77,-146.29 404,-79 408.48,-73.64 414.23,-69.43 420.48,-66.12"/>
<polygon fill="midnightblue" stroke="midnightblue" points="362.17,-273.83 355.86,-282.34 366.1,-279.62 362.17,-273.83"/>
</g>
<!-- Node32 -->
<g id="node33" class="node">
<title>Node32</title>
<g id="a_node33"><a xlink:title="STL class.">
<polygon fill="white" stroke="#bfbfbf" points="446.5,-0.5 446.5,-19.5 495.5,-19.5 495.5,-0.5 446.5,-0.5"/>
<text text-anchor="middle" x="471" y="-7.5" font-family="Helvetica,sans-Serif" font-size="10.00">istream</text>
</a>
</g>
</g>
<!-- Node8&#45;&gt;Node32 -->
<g id="edge32" class="edge">
<title>Node8&#45;&gt;Node32</title>
<path fill="none" stroke="midnightblue" d="M364.28,-276.73C365.6,-275.57 366.84,-274.33 368,-273 439.9,-190.26 331.84,-111.52 404,-29 414.52,-16.97 432.11,-12.33 446.48,-10.64"/>
<polygon fill="midnightblue" stroke="midnightblue" points="362.23,-273.89 356.01,-282.47 366.22,-279.64 362.23,-273.89"/>
</g>
<!-- Node33 -->
<g id="node34" class="node">
<title>Node33</title>
<g id="a_node34"><a xlink:title="STL class.">
<polygon fill="white" stroke="#bfbfbf" points="443,-301.5 443,-320.5 499,-320.5 499,-301.5 443,-301.5"/>
<text text-anchor="middle" x="471" y="-308.5" font-family="Helvetica,sans-Serif" font-size="10.00">wistream</text>
</a>
</g>
</g>
<!-- Node8&#45;&gt;Node33 -->
<g id="edge33" class="edge">
<title>Node8&#45;&gt;Node33</title>
<path fill="none" stroke="midnightblue" d="M369.85,-299.57C395.26,-302.47 422.87,-305.62 442.65,-307.88"/>
<polygon fill="midnightblue" stroke="midnightblue" points="370.2,-296.09 359.87,-298.43 369.41,-303.04 370.2,-296.09"/>
</g>
<!-- Node16 -->
<g id="node17" class="node">
<title>Node16</title>
<g id="a_node17"><a xlink:title="STL class.">
<polygon fill="white" stroke="#bfbfbf" points="612.5,-125.5 612.5,-144.5 664.5,-144.5 664.5,-125.5 612.5,-125.5"/>
<text text-anchor="middle" x="638.5" y="-132.5" font-family="Helvetica,sans-Serif" font-size="10.00">ifstream</text>
</a>
</g>
</g>
<!-- Node15&#45;&gt;Node16 -->
<g id="edge16" class="edge">
<title>Node15&#45;&gt;Node16</title>
<path fill="none" stroke="midnightblue" d="M524.68,-109.78C553.87,-116.3 588.84,-124.12 612.03,-129.31"/>
<polygon fill="midnightblue" stroke="midnightblue" points="525.14,-106.29 514.62,-107.53 523.62,-113.13 525.14,-106.29"/>
</g>
<!-- Node17 -->
<g id="node18" class="node">
<title>Node17</title>
<g id="a_node18"><a xlink:title="STL class.">
<polygon fill="white" stroke="#bfbfbf" points="609,-87.5 609,-106.5 668,-106.5 668,-87.5 609,-87.5"/>
<text text-anchor="middle" x="638.5" y="-94.5" font-family="Helvetica,sans-Serif" font-size="10.00">wifstream</text>
</a>
</g>
</g>
<!-- Node15&#45;&gt;Node17 -->
<g id="edge17" class="edge">
<title>Node15&#45;&gt;Node17</title>
<path fill="none" stroke="midnightblue" d="M540.03,-97.59C564.02,-97.44 589.71,-97.29 608.69,-97.17"/>
<polygon fill="midnightblue" stroke="midnightblue" points="539.86,-94.09 529.88,-97.65 539.9,-101.09 539.86,-94.09"/>
</g>
<!-- Node19 -->
<g id="node20" class="node">
<title>Node19</title>
<g id="a_node20"><a xlink:title=" ">
<polygon fill="white" stroke="#bfbfbf" points="582,-355.5 582,-374.5 695,-374.5 695,-355.5 582,-355.5"/>
<text text-anchor="middle" x="638.5" y="-362.5" font-family="Helvetica,sans-Serif" font-size="10.00">basic_fstream&lt; char &gt;</text>
</a>
</g>
</g>
<!-- Node18&#45;&gt;Node19 -->
<g id="edge19" class="edge">
<title>Node18&#45;&gt;Node19</title>
<path fill="none" stroke="midnightblue" d="M541.1,-377.81C554.71,-376.01 568.83,-374.13 581.92,-372.39"/>
<polygon fill="midnightblue" stroke="midnightblue" points="540.27,-374.39 530.82,-379.18 541.19,-381.33 540.27,-374.39"/>
</g>
<!-- Node20 -->
<g id="node21" class="node">
<title>Node20</title>
<g id="a_node21"><a xlink:title=" ">
<polygon fill="white" stroke="#bfbfbf" points="574,-317.5 574,-336.5 703,-336.5 703,-317.5 574,-317.5"/>
<text text-anchor="middle" x="638.5" y="-324.5" font-family="Helvetica,sans-Serif" font-size="10.00">basic_fstream&lt; wchar_t &gt;</text>
</a>
</g>
</g>
<!-- Node18&#45;&gt;Node20 -->
<g id="edge20" class="edge">
<title>Node18&#45;&gt;Node20</title>
<path fill="none" stroke="midnightblue" d="M521.29,-374.4C527.01,-372.47 532.69,-370.34 538,-368 555.16,-360.45 556.88,-353.64 574,-346 582.09,-342.39 591.06,-339.23 599.65,-336.58"/>
<polygon fill="midnightblue" stroke="midnightblue" points="520.17,-371.08 511.7,-377.44 522.29,-377.75 520.17,-371.08"/>
</g>
<!-- Node21 -->
<g id="node22" class="node">
<title>Node21</title>
<g id="a_node22"><a xlink:title=" ">
<polygon fill="white" stroke="#bfbfbf" points="589,-268 589,-298 688,-298 688,-268 589,-268"/>
<text text-anchor="start" x="597" y="-286" font-family="Helvetica,sans-Serif" font-size="10.00">basic_stringstream</text>
<text text-anchor="middle" x="638.5" y="-275" font-family="Helvetica,sans-Serif" font-size="10.00">&lt; char &gt;</text>
</a>
</g>
</g>
<!-- Node18&#45;&gt;Node21 -->
<g id="edge21" class="edge">
<title>Node18&#45;&gt;Node21</title>
<path fill="none" stroke="midnightblue" d="M530.51,-372.92C533.14,-371.44 535.65,-369.81 538,-368 562.66,-349.05 550.27,-328.1 574,-308 578.52,-304.17 583.7,-300.88 589.1,-298.07"/>
<polygon fill="midnightblue" stroke="midnightblue" points="528.73,-369.89 521.23,-377.37 531.76,-376.2 528.73,-369.89"/>
</g>
<!-- Node22 -->
<g id="node23" class="node">
<title>Node22</title>
<g id="a_node23"><a xlink:title=" ">
<polygon fill="white" stroke="#bfbfbf" points="589,-219 589,-249 688,-249 688,-219 589,-219"/>
<text text-anchor="start" x="597" y="-237" font-family="Helvetica,sans-Serif" font-size="10.00">basic_stringstream</text>
<text text-anchor="middle" x="638.5" y="-226" font-family="Helvetica,sans-Serif" font-size="10.00">&lt; wchar_t &gt;</text>
</a>
</g>
</g>
<!-- Node18&#45;&gt;Node22 -->
<g id="edge22" class="edge">
<title>Node18&#45;&gt;Node22</title>
<path fill="none" stroke="midnightblue" d="M532.74,-372.36C534.6,-371.03 536.36,-369.58 538,-368 574.77,-332.63 538.95,-296.07 574,-259 578.23,-254.52 583.37,-250.83 588.86,-247.8"/>
<polygon fill="midnightblue" stroke="midnightblue" points="530.91,-369.37 524.07,-377.46 534.46,-375.4 530.91,-369.37"/>
</g>
<!-- Node23 -->
<g id="node24" class="node">
<title>Node23</title>
<g id="a_node24"><a xlink:title="STL class.">
<polygon fill="white" stroke="#bfbfbf" points="581,-443.5 581,-462.5 696,-462.5 696,-443.5 581,-443.5"/>
<text text-anchor="middle" x="638.5" y="-450.5" font-family="Helvetica,sans-Serif" font-size="10.00">basic_fstream&lt; Char &gt;</text>
</a>
</g>
</g>
<!-- Node18&#45;&gt;Node23 -->
<g id="edge23" class="edge">
<title>Node18&#45;&gt;Node23</title>
<path fill="none" stroke="midnightblue" d="M523.67,-399.79C528.61,-401.63 533.47,-403.69 538,-406 556.07,-415.19 555.98,-424.71 574,-434 581.26,-437.74 589.38,-440.87 597.32,-443.44"/>
<polygon fill="midnightblue" stroke="midnightblue" points="524.71,-396.44 514.11,-396.52 522.44,-403.07 524.71,-396.44"/>
</g>
<!-- Node26 -->
<g id="node27" class="node">
<title>Node26</title>
<g id="a_node27"><a xlink:title="STL class.">
<polygon fill="white" stroke="#bfbfbf" points="589,-394 589,-424 688,-424 688,-394 589,-394"/>
<text text-anchor="start" x="597" y="-412" font-family="Helvetica,sans-Serif" font-size="10.00">basic_stringstream</text>
<text text-anchor="middle" x="638.5" y="-401" font-family="Helvetica,sans-Serif" font-size="10.00">&lt; Char &gt;</text>
</a>
</g>
</g>
<!-- Node18&#45;&gt;Node26 -->
<g id="edge26" class="edge">
<title>Node18&#45;&gt;Node26</title>
<path fill="none" stroke="midnightblue" d="M540.78,-396.14C556.97,-398.29 573.89,-400.54 588.97,-402.55"/>
<polygon fill="midnightblue" stroke="midnightblue" points="541.19,-392.67 530.82,-394.82 540.27,-399.61 541.19,-392.67"/>
</g>
<!-- Node24 -->
<g id="node25" class="node">
<title>Node24</title>
<g id="a_node25"><a xlink:title="STL class.">
<polygon fill="white" stroke="#bfbfbf" points="753,-479.5 753,-498.5 803,-498.5 803,-479.5 753,-479.5"/>
<text text-anchor="middle" x="778" y="-486.5" font-family="Helvetica,sans-Serif" font-size="10.00">fstream</text>
</a>
</g>
</g>
<!-- Node23&#45;&gt;Node24 -->
<g id="edge24" class="edge">
<title>Node23&#45;&gt;Node24</title>
<path fill="none" stroke="midnightblue" d="M685.71,-465.1C708.24,-471 734.4,-477.85 752.93,-482.7"/>
<polygon fill="midnightblue" stroke="midnightblue" points="686.55,-461.7 675.99,-462.55 684.77,-468.47 686.55,-461.7"/>
</g>
<!-- Node25 -->
<g id="node26" class="node">
<title>Node25</title>
<g id="a_node26"><a xlink:title="STL class.">
<polygon fill="white" stroke="#bfbfbf" points="749.5,-441.5 749.5,-460.5 806.5,-460.5 806.5,-441.5 749.5,-441.5"/>
<text text-anchor="middle" x="778" y="-448.5" font-family="Helvetica,sans-Serif" font-size="10.00">wfstream</text>
</a>
</g>
</g>
<!-- Node23&#45;&gt;Node25 -->
<g id="edge25" class="edge">
<title>Node23&#45;&gt;Node25</title>
<path fill="none" stroke="midnightblue" d="M706.63,-452.02C721.74,-451.8 736.95,-451.58 749.35,-451.4"/>
<polygon fill="midnightblue" stroke="midnightblue" points="706.17,-448.53 696.22,-452.17 706.27,-455.53 706.17,-448.53"/>
</g>
<!-- Node27 -->
<g id="node28" class="node">
<title>Node27</title>
<g id="a_node28"><a xlink:title="STL class.">
<polygon fill="white" stroke="#bfbfbf" points="742.5,-400.5 742.5,-419.5 813.5,-419.5 813.5,-400.5 742.5,-400.5"/>
<text text-anchor="middle" x="778" y="-407.5" font-family="Helvetica,sans-Serif" font-size="10.00">stringstream</text>
</a>
</g>
</g>
<!-- Node26&#45;&gt;Node27 -->
<g id="edge27" class="edge">
<title>Node26&#45;&gt;Node27</title>
<path fill="none" stroke="midnightblue" d="M698.52,-409.43C713.38,-409.54 728.86,-409.65 742.11,-409.75"/>
<polygon fill="midnightblue" stroke="midnightblue" points="698.39,-405.93 688.36,-409.36 698.34,-412.93 698.39,-405.93"/>
</g>
<!-- Node28 -->
<g id="node29" class="node">
<title>Node28</title>
<g id="a_node29"><a xlink:title="STL class.">
<polygon fill="white" stroke="#bfbfbf" points="739,-362.5 739,-381.5 817,-381.5 817,-362.5 739,-362.5"/>
<text text-anchor="middle" x="778" y="-369.5" font-family="Helvetica,sans-Serif" font-size="10.00">wstringstream</text>
</a>
</g>
</g>
<!-- Node26&#45;&gt;Node28 -->
<g id="edge28" class="edge">
<title>Node26&#45;&gt;Node28</title>
<path fill="none" stroke="midnightblue" d="M698.43,-393.14C713.16,-389.18 728.51,-385.05 741.69,-381.5"/>
<polygon fill="midnightblue" stroke="midnightblue" points="697.11,-389.87 688.36,-395.85 698.93,-396.63 697.11,-389.87"/>
</g>
<!-- Node30 -->
<g id="node31" class="node">
<title>Node30</title>
<g id="a_node31"><a xlink:title="STL class.">
<polygon fill="white" stroke="#bfbfbf" points="602,-47.5 602,-66.5 675,-66.5 675,-47.5 602,-47.5"/>
<text text-anchor="middle" x="638.5" y="-54.5" font-family="Helvetica,sans-Serif" font-size="10.00">istringstream</text>
</a>
</g>
</g>
<!-- Node29&#45;&gt;Node30 -->
<g id="edge30" class="edge">
<title>Node29&#45;&gt;Node30</title>
<path fill="none" stroke="midnightblue" d="M531.86,-55.09C555.31,-55.51 581.42,-55.98 601.81,-56.35"/>
<polygon fill="midnightblue" stroke="midnightblue" points="531.72,-51.58 521.66,-54.9 531.59,-58.58 531.72,-51.58"/>
</g>
<!-- Node31 -->
<g id="node32" class="node">
<title>Node31</title>
<g id="a_node32"><a xlink:title="STL class.">
<polygon fill="white" stroke="#bfbfbf" points="598.5,-9.5 598.5,-28.5 678.5,-28.5 678.5,-9.5 598.5,-9.5"/>
<text text-anchor="middle" x="638.5" y="-16.5" font-family="Helvetica,sans-Serif" font-size="10.00">wistringstream</text>
</a>
</g>
</g>
<!-- Node29&#45;&gt;Node31 -->
<g id="edge31" class="edge">
<title>Node29&#45;&gt;Node31</title>
<path fill="none" stroke="midnightblue" d="M531.66,-41.38C553.87,-36.69 578.49,-31.48 598.39,-27.27"/>
<polygon fill="midnightblue" stroke="midnightblue" points="530.71,-38.01 521.66,-43.5 532.16,-44.85 530.71,-38.01"/>
</g>
<!-- Node34&#45;&gt;Node11 -->
<g id="edge35" class="edge">
<title>Node34&#45;&gt;Node11</title>
<path fill="none" stroke="midnightblue" d="M314.33,-466.69C330.56,-440.84 363.64,-393.91 404,-368 410.02,-364.14 416.84,-361.04 423.76,-358.56"/>
<polygon fill="midnightblue" stroke="midnightblue" points="311.18,-465.12 308.95,-475.48 317.16,-468.77 311.18,-465.12"/>
</g>
<!-- Node34&#45;&gt;Node12 -->
<g id="edge36" class="edge">
<title>Node34&#45;&gt;Node12</title>
<path fill="none" stroke="midnightblue" d="M334.59,-471.31C354.28,-462.89 380.39,-452.19 404,-444 413.69,-440.64 424.32,-437.39 434.16,-434.56"/>
<polygon fill="midnightblue" stroke="midnightblue" points="333,-468.19 325.2,-475.36 335.77,-474.61 333,-468.19"/>
</g>
<!-- Node34&#45;&gt;Node18 -->
<g id="edge41" class="edge">
<title>Node34&#45;&gt;Node18</title>
<path fill="none" stroke="midnightblue" d="M320.39,-468.31C339.27,-450.51 371.5,-422.64 404,-406 411.32,-402.25 419.49,-399.14 427.52,-396.6"/>
<polygon fill="midnightblue" stroke="midnightblue" points="317.94,-465.81 313.14,-475.26 322.78,-470.86 317.94,-465.81"/>
</g>
<!-- Node35 -->
<g id="node36" class="node">
<title>Node35</title>
<g id="a_node36"><a xlink:title=" ">
<polygon fill="white" stroke="#bfbfbf" points="411.5,-716.5 411.5,-735.5 530.5,-735.5 530.5,-716.5 411.5,-716.5"/>
<text text-anchor="middle" x="471" y="-723.5" font-family="Helvetica,sans-Serif" font-size="10.00">basic_ofstream&lt; char &gt;</text>
</a>
</g>
</g>
<!-- Node34&#45;&gt;Node35 -->
<g id="edge37" class="edge">
<title>Node34&#45;&gt;Node35</title>
<path fill="none" stroke="midnightblue" d="M364.22,-500.31C365.56,-501.46 366.82,-502.68 368,-504 429.1,-572.29 342.69,-638.9 404,-707 407.43,-710.81 411.57,-713.88 416.09,-716.34"/>
<polygon fill="midnightblue" stroke="midnightblue" points="366.13,-497.38 355.89,-494.63 362.18,-503.16 366.13,-497.38"/>
</g>
<!-- Node36 -->
<g id="node37" class="node">
<title>Node36</title>
<g id="a_node37"><a xlink:title=" ">
<polygon fill="white" stroke="#bfbfbf" points="404,-678.5 404,-697.5 538,-697.5 538,-678.5 404,-678.5"/>
<text text-anchor="middle" x="471" y="-685.5" font-family="Helvetica,sans-Serif" font-size="10.00">basic_ofstream&lt; wchar_t &gt;</text>
</a>
</g>
</g>
<!-- Node34&#45;&gt;Node36 -->
<g id="edge38" class="edge">
<title>Node34&#45;&gt;Node36</title>
<path fill="none" stroke="midnightblue" d="M364.06,-500.3C365.45,-501.45 366.77,-502.68 368,-504 419.14,-558.94 352.69,-614.22 404,-669 407.59,-672.83 411.89,-675.9 416.56,-678.37"/>
<polygon fill="midnightblue" stroke="midnightblue" points="365.7,-497.19 355.43,-494.61 361.85,-503.03 365.7,-497.19"/>
</g>
<!-- Node37 -->
<g id="node38" class="node">
<title>Node37</title>
<g id="a_node38"><a xlink:title=" ">
<polygon fill="white" stroke="#bfbfbf" points="419,-629 419,-659 523,-659 523,-629 419,-629"/>
<text text-anchor="start" x="427" y="-647" font-family="Helvetica,sans-Serif" font-size="10.00">basic_ostringstream</text>
<text text-anchor="middle" x="471" y="-636" font-family="Helvetica,sans-Serif" font-size="10.00">&lt; char &gt;</text>
</a>
</g>
</g>
<!-- Node34&#45;&gt;Node37 -->
<g id="edge39" class="edge">
<title>Node34&#45;&gt;Node37</title>
<path fill="none" stroke="midnightblue" d="M363.31,-499.99C364.97,-501.22 366.53,-502.56 368,-504 406.45,-541.89 366.75,-580.93 404,-620 408.21,-624.41 413.29,-628.02 418.74,-630.96"/>
<polygon fill="midnightblue" stroke="midnightblue" points="364.83,-496.81 354.46,-494.61 361.19,-502.79 364.83,-496.81"/>
</g>
<!-- Node38 -->
<g id="node39" class="node">
<title>Node38</title>
<g id="a_node39"><a xlink:title=" ">
<polygon fill="white" stroke="#bfbfbf" points="419,-580 419,-610 523,-610 523,-580 419,-580"/>
<text text-anchor="start" x="427" y="-598" font-family="Helvetica,sans-Serif" font-size="10.00">basic_ostringstream</text>
<text text-anchor="middle" x="471" y="-587" font-family="Helvetica,sans-Serif" font-size="10.00">&lt; wchar_t &gt;</text>
</a>
</g>
</g>
<!-- Node34&#45;&gt;Node38 -->
<g id="edge40" class="edge">
<title>Node34&#45;&gt;Node38</title>
<path fill="none" stroke="midnightblue" d="M360.77,-499.04C363.32,-500.53 365.74,-502.18 368,-504 394,-524.98 378.81,-548.05 404,-570 408.43,-573.86 413.53,-577.16 418.87,-579.96"/>
<polygon fill="midnightblue" stroke="midnightblue" points="362.28,-495.88 351.77,-494.56 359.16,-502.15 362.28,-495.88"/>
</g>
<!-- Node39 -->
<g id="node40" class="node">
<title>Node39</title>
<g id="a_node40"><a xlink:title="STL class.">
<polygon fill="white" stroke="#bfbfbf" points="411,-541.5 411,-560.5 531,-560.5 531,-541.5 411,-541.5"/>
<text text-anchor="middle" x="471" y="-548.5" font-family="Helvetica,sans-Serif" font-size="10.00">basic_ofstream&lt; Char &gt;</text>
</a>
</g>
</g>
<!-- Node34&#45;&gt;Node39 -->
<g id="edge42" class="edge">
<title>Node34&#45;&gt;Node39</title>
<path fill="none" stroke="midnightblue" d="M353.78,-497.78C358.69,-499.63 363.51,-501.7 368,-504 386.04,-513.25 385.93,-522.81 404,-532 411.44,-535.79 419.74,-538.92 427.89,-541.48"/>
<polygon fill="midnightblue" stroke="midnightblue" points="354.91,-494.47 344.31,-494.5 352.62,-501.08 354.91,-494.47"/>
</g>
<!-- Node42 -->
<g id="node43" class="node">
<title>Node42</title>
<g id="a_node43"><a xlink:title="STL class.">
<polygon fill="white" stroke="#bfbfbf" points="419,-492 419,-522 523,-522 523,-492 419,-492"/>
<text text-anchor="start" x="427" y="-510" font-family="Helvetica,sans-Serif" font-size="10.00">basic_ostringstream</text>
<text text-anchor="middle" x="471" y="-499" font-family="Helvetica,sans-Serif" font-size="10.00">&lt; Char &gt;</text>
</a>
</g>
</g>
<!-- Node34&#45;&gt;Node42 -->
<g id="edge45" class="edge">
<title>Node34&#45;&gt;Node42</title>
<path fill="none" stroke="midnightblue" d="M371.5,-493.99C387.28,-496.07 403.81,-498.25 418.73,-500.23"/>
<polygon fill="midnightblue" stroke="midnightblue" points="371.64,-490.47 361.27,-492.63 370.72,-497.41 371.64,-490.47"/>
</g>
<!-- Node45 -->
<g id="node46" class="node">
<title>Node45</title>
<g id="a_node46"><a xlink:title="STL class.">
<polygon fill="white" stroke="#bfbfbf" points="445,-453.5 445,-472.5 497,-472.5 497,-453.5 445,-453.5"/>
<text text-anchor="middle" x="471" y="-460.5" font-family="Helvetica,sans-Serif" font-size="10.00">ostream</text>
</a>
</g>
</g>
<!-- Node34&#45;&gt;Node45 -->
<g id="edge48" class="edge">
<title>Node34&#45;&gt;Node45</title>
<path fill="none" stroke="midnightblue" d="M371.46,-476.02C397.4,-472.59 425.39,-468.89 444.88,-466.32"/>
<polygon fill="midnightblue" stroke="midnightblue" points="370.72,-472.59 361.27,-477.37 371.64,-479.53 370.72,-472.59"/>
</g>
<!-- Node46 -->
<g id="node47" class="node">
<title>Node46</title>
<g id="a_node47"><a xlink:title="STL class.">
<polygon fill="white" stroke="#bfbfbf" points="441.5,-754.5 441.5,-773.5 500.5,-773.5 500.5,-754.5 441.5,-754.5"/>
<text text-anchor="middle" x="471" y="-761.5" font-family="Helvetica,sans-Serif" font-size="10.00">wostream</text>
</a>
</g>
</g>
<!-- Node34&#45;&gt;Node46 -->
<g id="edge49" class="edge">
<title>Node34&#45;&gt;Node46</title>
<path fill="none" stroke="midnightblue" d="M364.27,-500.27C365.59,-501.43 366.84,-502.67 368,-504 439.11,-585.68 332.64,-663.54 404,-745 413.27,-755.58 428.02,-760.45 441.22,-762.62"/>
<polygon fill="midnightblue" stroke="midnightblue" points="366.21,-497.36 356,-494.54 362.23,-503.11 366.21,-497.36"/>
</g>
<!-- Node40 -->
<g id="node41" class="node">
<title>Node40</title>
<g id="a_node41"><a xlink:title="STL class.">
<polygon fill="white" stroke="#bfbfbf" points="611,-595.5 611,-614.5 666,-614.5 666,-595.5 611,-595.5"/>
<text text-anchor="middle" x="638.5" y="-602.5" font-family="Helvetica,sans-Serif" font-size="10.00">ofstream</text>
</a>
</g>
</g>
<!-- Node39&#45;&gt;Node40 -->
<g id="edge43" class="edge">
<title>Node39&#45;&gt;Node40</title>
<path fill="none" stroke="midnightblue" d="M515.53,-563.51C523.06,-565.87 530.79,-568.41 538,-571 554.31,-576.85 557.67,-580.17 574,-586 585.92,-590.25 599.32,-594.36 610.73,-597.66"/>
<polygon fill="midnightblue" stroke="midnightblue" points="516.38,-560.11 505.79,-560.53 514.33,-566.8 516.38,-560.11"/>
</g>
<!-- Node41 -->
<g id="node42" class="node">
<title>Node41</title>
<g id="a_node42"><a xlink:title="STL class.">
<polygon fill="white" stroke="#bfbfbf" points="607.5,-557.5 607.5,-576.5 669.5,-576.5 669.5,-557.5 607.5,-557.5"/>
<text text-anchor="middle" x="638.5" y="-564.5" font-family="Helvetica,sans-Serif" font-size="10.00">wofstream</text>
</a>
</g>
</g>
<!-- Node39&#45;&gt;Node41 -->
<g id="edge44" class="edge">
<title>Node39&#45;&gt;Node41</title>
<path fill="none" stroke="midnightblue" d="M541.39,-557.71C564.44,-559.94 588.9,-562.3 607.38,-564.09"/>
<polygon fill="midnightblue" stroke="midnightblue" points="541.57,-554.21 531.28,-556.73 540.9,-561.18 541.57,-554.21"/>
</g>
<!-- Node43 -->
<g id="node44" class="node">
<title>Node43</title>
<g id="a_node44"><a xlink:title="STL class.">
<polygon fill="white" stroke="#bfbfbf" points="600.5,-519.5 600.5,-538.5 676.5,-538.5 676.5,-519.5 600.5,-519.5"/>
<text text-anchor="middle" x="638.5" y="-526.5" font-family="Helvetica,sans-Serif" font-size="10.00">ostringstream</text>
</a>
</g>
</g>
<!-- Node42&#45;&gt;Node43 -->
<g id="edge46" class="edge">
<title>Node42&#45;&gt;Node43</title>
<path fill="none" stroke="midnightblue" d="M533.17,-515.13C555.71,-518.13 580.54,-521.43 600.32,-524.06"/>
<polygon fill="midnightblue" stroke="midnightblue" points="533.38,-511.63 523.01,-513.78 532.46,-518.57 533.38,-511.63"/>
</g>
<!-- Node44 -->
<g id="node45" class="node">
<title>Node44</title>
<g id="a_node45"><a xlink:title="STL class.">
<polygon fill="white" stroke="#bfbfbf" points="597,-481.5 597,-500.5 680,-500.5 680,-481.5 597,-481.5"/>
<text text-anchor="middle" x="638.5" y="-488.5" font-family="Helvetica,sans-Serif" font-size="10.00">wostringstream</text>
</a>
</g>
</g>
<!-- Node42&#45;&gt;Node44 -->
<g id="edge47" class="edge">
<title>Node42&#45;&gt;Node44</title>
<path fill="none" stroke="midnightblue" d="M533.24,-501.08C554.47,-499.03 577.74,-496.78 596.89,-494.93"/>
<polygon fill="midnightblue" stroke="midnightblue" points="532.62,-497.62 523.01,-502.07 533.3,-504.59 532.62,-497.62"/>
</g>
</g>
</svg>
